<?xml version="1.0" encoding="utf-8" ?>
<svg baseProfile="tiny" height="30mm" version="1.2" viewBox="0 0 100 30" width="100mm" xmlns="http://www.w3.org/2000/svg" xmlns:ev="http://www.w3.org/2001/xml-events" xmlns:xlink="http://www.w3.org/1999/xlink"><defs /><rect fill="none" height="30" stroke="black" stroke-width="0.1" width="100" x="0" y="0" /><circle cx="7" cy="15.0" fill="none" r="2.5" stroke="black" stroke-width="0.1" /><circle cx="93" cy="15.0" fill="none" r="2.5" stroke="black" stroke-width="0.1" /><polygon fill="none" points="35.0,6.0 34.902,5.9952 34.8049,5.9808 34.7097,5.9569 34.6173,5.9239 34.5286,5.8819 34.4444,5.8315 34.3656,5.773 34.2929,5.7071 34.227,5.6344 34.1685,5.5556 34.1181,5.4714 34.0761,5.3827 34.0431,5.2903 34.0192,5.1951 34.0048,5.098 34.0,5.0 34.0048,4.902 34.0192,4.8049 34.0431,4.7097 34.0761,4.6173 34.1181,4.5286 34.1685,4.4444 34.227,4.3656 34.2929,4.2929 34.3656,4.227 34.4444,4.1685 34.5286,4.1181 34.6173,4.0761 34.7097,4.0431 34.8049,4.0192 34.902,4.0048 45.0,4.0 45.098,4.0048 45.1951,4.0192 45.2903,4.0431 45.3827,4.0761 45.4714,4.1181 45.5556,4.1685 45.6344,4.227 45.7071,4.2929 45.773,4.3656 45.8315,4.4444 45.8819,4.5286 45.9239,4.6173 45.9569,4.7097 45.9808,4.8049 45.9952,4.902 46.0,5.0 45.9952,5.098 45.9808,5.1951 45.9569,5.2903 45.9239,5.3827 45.8819,5.4714 45.8315,5.5556 45.773,5.6344 45.7071,5.7071 45.6344,5.773 45.5556,5.8315 45.4714,5.8819 45.3827,5.9239 45.2903,5.9569 45.1951,5.9808 45.098,5.9952" stroke="black" stroke-width="0.1" /><polygon fill="none" points="55.0,6.0 54.902,5.9952 54.8049,5.9808 54.7097,5.9569 54.6173,5.9239 54.5286,5.8819 54.4444,5.8315 54.3656,5.773 54.2929,5.7071 54.227,5.6344 54.1685,5.5556 54.1181,5.4714 54.0761,5.3827 54.0431,5.2903 54.0192,5.1951 54.0048,5.098 54.0,5.0 54.0048,4.902 54.0192,4.8049 54.0431,4.7097 54.0761,4.6173 54.1181,4.5286 54.1685,4.4444 54.227,4.3656 54.2929,4.2929 54.3656,4.227 54.4444,4.1685 54.5286,4.1181 54.6173,4.0761 54.7097,4.0431 54.8049,4.0192 54.902,4.0048 65.0,4.0 65.098,4.0048 65.1951,4.0192 65.2903,4.0431 65.3827,4.0761 65.4714,4.1181 65.5556,4.1685 65.6344,4.227 65.7071,4.2929 65.773,4.3656 65.8315,4.4444 65.8819,4.5286 65.9239,4.6173 65.9569,4.7097 65.9808,4.8049 65.9952,4.902 66.0,5.0 65.9952,5.098 65.9808,5.1951 65.9569,5.2903 65.9239,5.3827 65.8819,5.4714 65.8315,5.5556 65.773,5.6344 65.7071,5.7071 65.6344,5.773 65.5556,5.8315 65.4714,5.8819 65.3827,5.9239 65.2903,5.9569 65.1951,5.9808 65.098,5.9952" stroke="black" stroke-width="0.1" /><polygon fill="none" points="35.0,26.0 34.902,25.9952 34.8049,25.9808 34.7097,25.9569 34.6173,25.9239 34.5286,25.8819 34.4444,25.8315 34.3656,25.773 34.2929,25.7071 34.227,25.6344 34.1685,25.5556 34.1181,25.4714 34.0761,25.3827 34.0431,25.2903 34.0192,25.1951 34.0048,25.098 34.0,25.0 34.0048,24.902 34.0192,24.8049 34.0431,24.7097 34.0761,24.6173 34.1181,24.5286 34.1685,24.4444 34.227,24.3656 34.2929,24.2929 34.3656,24.227 34.4444,24.1685 34.5286,24.1181 34.6173,24.0761 34.7097,24.0431 34.8049,24.0192 34.902,24.0048 45.0,24.0 45.098,24.0048 45.1951,24.0192 45.2903,24.0431 45.3827,24.0761 45.4714,24.1181 45.5556,24.1685 45.6344,24.227 45.7071,24.2929 45.773,24.3656 45.8315,24.4444 45.8819,24.5286 45.9239,24.6173 45.9569,24.7097 45.9808,24.8049 45.9952,24.902 46.0,25.0 45.9952,25.098 45.9808,25.1951 45.9569,25.2903 45.9239,25.3827 45.8819,25.4714 45.8315,25.5556 45.773,25.6344 45.7071,25.7071 45.6344,25.773 45.5556,25.8315 45.4714,25.8819 45.3827,25.9239 45.2903,25.9569 45.1951,25.9808 45.098,25.9952" stroke="black" stroke-width="0.1" /><polygon fill="none" points="55.0,26.0 54.902,25.9952 54.8049,25.9808 54.7097,25.9569 54.6173,25.9239 54.5286,25.8819 54.4444,25.8315 54.3656,25.773 54.2929,25.7071 54.227,25.6344 54.1685,25.5556 54.1181,25.4714 54.0761,25.3827 54.0431,25.2903 54.0192,25.1951 54.0048,25.098 54.0,25.0 54.0048,24.902 54.0192,24.8049 54.0431,24.7097 54.0761,24.6173 54.1181,24.5286 54.1685,24.4444 54.227,24.3656 54.2929,24.2929 54.3656,24.227 54.4444,24.1685 54.5286,24.1181 54.6173,24.0761 54.7097,24.0431 54.8049,24.0192 54.902,24.0048 65.0,24.0 65.098,24.0048 65.1951,24.0192 65.2903,24.0431 65.3827,24.0761 65.4714,24.1181 65.5556,24.1685 65.6344,24.227 65.7071,24.2929 65.773,24.3656 65.8315,24.4444 65.8819,24.5286 65.9239,24.6173 65.9569,24.7097 65.9808,24.8049 65.9952,24.902 66.0,25.0 65.9952,25.098 65.9808,25.1951 65.9569,25.2903 65.9239,25.3827 65.8819,25.4714 65.8315,25.5556 65.773,25.6344 65.7071,25.7071 65.6344,25.773 65.5556,25.8315 65.4714,25.8819 65.3827,25.9239 65.2903,25.9569 65.1951,25.9808 65.098,25.9952" stroke="black" stroke-width="0.1" /></svg>