<?xml version="1.0" encoding="utf-8" ?>
<svg baseProfile="tiny" height="30mm" version="1.2" viewBox="0 0 100 30" width="100mm" xmlns="http://www.w3.org/2000/svg" xmlns:ev="http://www.w3.org/2001/xml-events" xmlns:xlink="http://www.w3.org/1999/xlink"><defs /><rect fill="none" height="30" stroke="black" stroke-width="0.1" width="100" x="0" y="0" /><circle cx="7" cy="15.0" fill="none" r="2.5" stroke="black" stroke-width="0.1" /><circle cx="93" cy="15.0" fill="none" r="2.5" stroke="black" stroke-width="0.1" /><polygon fill="none" points="35.0,6.0 34.9128,5.9962 34.8264,5.9848 34.7412,5.9659 34.658,5.9397 34.5774,5.9063 34.5,5.866 34.4264,5.8192 34.3572,5.766 34.2929,5.7071 34.234,5.6428 34.1808,5.5736 34.134,5.5 34.0937,5.4226 34.0603,5.342 34.0341,5.2588 34.0152,5.1736 34.0038,5.0872 34.0,5.0 34.0038,4.9128 34.0152,4.8264 34.0341,4.7412 34.0603,4.658 34.0937,4.5774 34.134,4.5 34.1808,4.4264 34.234,4.3572 34.2929,4.2929 34.3572,4.234 34.4264,4.1808 34.5,4.134 34.5774,4.0937 34.658,4.0603 34.7412,4.0341 34.8264,4.0152 34.9128,4.0038 45.0,4.0 45.0872,4.0038 45.1736,4.0152 45.2588,4.0341 45.342,4.0603 45.4226,4.0937 45.5,4.134 45.5736,4.1808 45.6428,4.234 45.7071,4.2929 45.766,4.3572 45.8192,4.4264 45.866,4.5 45.9063,4.5774 45.9397,4.658 45.9659,4.7412 45.9848,4.8264 45.9962,4.9128 46.0,5.0 45.9962,5.0872 45.9848,5.1736 45.9659,5.2588 45.9397,5.342 45.9063,5.4226 45.866,5.5 45.8192,5.5736 45.766,5.6428 45.7071,5.7071 45.6428,5.766 45.5736,5.8192 45.5,5.866 45.4226,5.9063 45.342,5.9397 45.2588,5.9659 45.1736,5.9848 45.0872,5.9962" stroke="black" stroke-width="0.1" /><polygon fill="none" points="55.0,6.0 54.9128,5.9962 54.8264,5.9848 54.7412,5.9659 54.658,5.9397 54.5774,5.9063 54.5,5.866 54.4264,5.8192 54.3572,5.766 54.2929,5.7071 54.234,5.6428 54.1808,5.5736 54.134,5.5 54.0937,5.4226 54.0603,5.342 54.0341,5.2588 54.0152,5.1736 54.0038,5.0872 54.0,5.0 54.0038,4.9128 54.0152,4.8264 54.0341,4.7412 54.0603,4.658 54.0937,4.5774 54.134,4.5 54.1808,4.4264 54.234,4.3572 54.2929,4.2929 54.3572,4.234 54.4264,4.1808 54.5,4.134 54.5774,4.0937 54.658,4.0603 54.7412,4.0341 54.8264,4.0152 54.9128,4.0038 65.0,4.0 65.0872,4.0038 65.1736,4.0152 65.2588,4.0341 65.342,4.0603 65.4226,4.0937 65.5,4.134 65.5736,4.1808 65.6428,4.234 65.7071,4.2929 65.766,4.3572 65.8192,4.4264 65.866,4.5 65.9063,4.5774 65.9397,4.658 65.9659,4.7412 65.9848,4.8264 65.9962,4.9128 66.0,5.0 65.9962,5.0872 65.9848,5.1736 65.9659,5.2588 65.9397,5.342 65.9063,5.4226 65.866,5.5 65.8192,5.5736 65.766,5.6428 65.7071,5.7071 65.6428,5.766 65.5736,5.8192 65.5,5.866 65.4226,5.9063 65.342,5.9397 65.2588,5.9659 65.1736,5.9848 65.0872,5.9962" stroke="black" stroke-width="0.1" /><polygon fill="none" points="35.0,26.0 34.9128,25.9962 34.8264,25.9848 34.7412,25.9659 34.658,25.9397 34.5774,25.9063 34.5,25.866 34.4264,25.8192 34.3572,25.766 34.2929,25.7071 34.234,25.6428 34.1808,25.5736 34.134,25.5 34.0937,25.4226 34.0603,25.342 34.0341,25.2588 34.0152,25.1736 34.0038,25.0872 34.0,25.0 34.0038,24.9128 34.0152,24.8264 34.0341,24.7412 34.0603,24.658 34.0937,24.5774 34.134,24.5 34.1808,24.4264 34.234,24.3572 34.2929,24.2929 34.3572,24.234 34.4264,24.1808 34.5,24.134 34.5774,24.0937 34.658,24.0603 34.7412,24.0341 34.8264,24.0152 34.9128,24.0038 45.0,24.0 45.0872,24.0038 45.1736,24.0152 45.2588,24.0341 45.342,24.0603 45.4226,24.0937 45.5,24.134 45.5736,24.1808 45.6428,24.234 45.7071,24.2929 45.766,24.3572 45.8192,24.4264 45.866,24.5 45.9063,24.5774 45.9397,24.658 45.9659,24.7412 45.9848,24.8264 45.9962,24.9128 46.0,25.0 45.9962,25.0872 45.9848,25.1736 45.9659,25.2588 45.9397,25.342 45.9063,25.4226 45.866,25.5 45.8192,25.5736 45.766,25.6428 45.7071,25.7071 45.6428,25.766 45.5736,25.8192 45.5,25.866 45.4226,25.9063 45.342,25.9397 45.2588,25.9659 45.1736,25.9848 45.0872,25.9962" stroke="black" stroke-width="0.1" /><polygon fill="none" points="55.0,26.0 54.9128,25.9962 54.8264,25.9848 54.7412,25.9659 54.658,25.9397 54.5774,25.9063 54.5,25.866 54.4264,25.8192 54.3572,25.766 54.2929,25.7071 54.234,25.6428 54.1808,25.5736 54.134,25.5 54.0937,25.4226 54.0603,25.342 54.0341,25.2588 54.0152,25.1736 54.0038,25.0872 54.0,25.0 54.0038,24.9128 54.0152,24.8264 54.0341,24.7412 54.0603,24.658 54.0937,24.5774 54.134,24.5 54.1808,24.4264 54.234,24.3572 54.2929,24.2929 54.3572,24.234 54.4264,24.1808 54.5,24.134 54.5774,24.0937 54.658,24.0603 54.7412,24.0341 54.8264,24.0152 54.9128,24.0038 65.0,24.0 65.0872,24.0038 65.1736,24.0152 65.2588,24.0341 65.342,24.0603 65.4226,24.0937 65.5,24.134 65.5736,24.1808 65.6428,24.234 65.7071,24.2929 65.766,24.3572 65.8192,24.4264 65.866,24.5 65.9063,24.5774 65.9397,24.658 65.9659,24.7412 65.9848,24.8264 65.9962,24.9128 66.0,25.0 65.9962,25.0872 65.9848,25.1736 65.9659,25.2588 65.9397,25.342 65.9063,25.4226 65.866,25.5 65.8192,25.5736 65.766,25.6428 65.7071,25.7071 65.6428,25.766 65.5736,25.8192 65.5,25.866 65.4226,25.9063 65.342,25.9397 65.2588,25.9659 65.1736,25.9848 65.0872,25.9962" stroke="black" stroke-width="0.1" /></svg>