<?xml version="1.0" encoding="utf-8" ?>
<svg baseProfile="tiny" height="30mm" version="1.2" viewBox="0 0 100 30" width="100mm" xmlns="http://www.w3.org/2000/svg" xmlns:ev="http://www.w3.org/2001/xml-events" xmlns:xlink="http://www.w3.org/1999/xlink"><defs /><rect fill="none" height="30" stroke="black" stroke-width="0.1" width="98" x="0" y="0" /><circle cx="6" cy="15.0" fill="none" r="5" stroke="black" stroke-width="0.1" /><circle cx="92" cy="15.0" fill="none" r="5" stroke="black" stroke-width="0.1" /><polygon fill="none" points="36.4292,4.0 36.434,3.902 36.4484,3.8049 36.4723,3.7097 36.5053,3.6173 36.5473,3.5286 36.5977,3.4444 36.6562,3.3656 36.7221,3.2929 36.7948,3.227 36.8736,3.1685 36.9578,3.1181 37.0465,3.0761 37.1389,3.0431 37.2341,3.0192 37.3312,3.0048 37.4292,3.0 37.5272,3.0048 37.6243,3.0192 37.7195,3.0431 37.8119,3.0761 37.9006,3.1181 37.9848,3.1685 38.0636,3.227 38.1363,3.2929 38.2022,3.3656 38.2607,3.4444 38.3111,3.5286 38.3531,3.6173 38.3861,3.7097 38.41,3.8049 38.4244,3.902 38.4293,4.0024 38.4301,4.0096 38.4321,4.0215 38.436,4.0381 38.4425,4.059 38.452,4.0843 38.4652,4.1135 38.4826,4.1464 38.5046,4.1828 38.5316,4.2222 38.5642,4.2643 38.6025,4.3087 38.6469,4.3549 38.6976,4.4025 38.7547,4.451 38.8183,4.5 38.8885,4.549 38.9653,4.5975 39.0484,4.6451 39.1379,4.6913 39.2334,4.7357 39.3347,4.7778 39.4415,4.8172 39.5534,4.8536 39.6699,4.8865 39.7905,4.9157 39.9148,4.941 40.0422,4.9619 40.1721,4.9785 40.304,4.9904 40.4371,4.9976 40.5708,5.0 40.7045,4.9976 40.8376,4.9904 40.9695,4.9785 41.0994,4.9619 41.2268,4.941 41.3511,4.9157 41.4717,4.8865 41.5882,4.8536 41.7001,4.8172 41.8068,4.7778 41.9082,4.7357 42.0037,4.6913 42.0932,4.6451 42.1763,4.5975 42.2531,4.549 42.3233,4.5 42.3869,4.451 42.444,4.4025 42.4947,4.3549 42.5391,4.3087 42.5774,4.2643 42.6099,4.2222 42.637,4.1828 42.659,4.1464 42.6764,4.1135 42.6896,4.0843 42.6991,4.059 42.7056,4.0381 42.7095,4.0215 42.7115,4.0096 42.7123,4.0024 42.7172,3.902 42.7316,3.8049 42.7554,3.7097 42.7885,3.6173 42.8305,3.5286 42.8809,3.4444 42.9394,3.3656 43.0053,3.2929 43.078,3.227 43.1568,3.1685 43.241,3.1181 43.3297,3.0761 43.4221,3.0431 43.5173,3.0192 43.6144,3.0048 43.7124,3.0 43.8104,3.0048 43.9075,3.0192 44.0027,3.0431 44.0951,3.0761 44.1838,3.1181 44.268,3.1685 44.3468,3.227 44.4195,3.2929 44.4854,3.3656 44.5439,3.4444 44.5943,3.5286 44.6363,3.6173 44.6693,3.7097 44.6932,3.8049 44.7076,3.902 44.7122,4.0072 44.7107,4.0288 44.7068,4.0646 44.6992,4.1142 44.6867,4.1771 44.6683,4.2528 44.6427,4.3405 44.6092,4.4393 44.5666,4.5484 44.5143,4.6666 44.4514,4.7929 44.3773,4.926 44.2914,5.0646 44.1934,5.2074 44.083,5.353 43.9599,5.5 43.8241,5.647 43.6757,5.7926 43.5149,5.9354 43.3419,6.074 43.1571,6.2071 42.9612,6.3334 42.7547,6.4516 42.5384,6.5607 42.3131,6.6595 42.0798,6.7472 41.8394,6.8229 41.593,6.8858 41.3418,6.9354 41.0868,6.9712 40.8294,6.9928 40.5708,7.0 40.3122,6.9928 40.0548,6.9712 39.7998,6.9354 39.5486,6.8858 39.3022,6.8229 39.0618,6.7472 38.8285,6.6595 38.6032,6.5607 38.3869,6.4516 38.1804,6.3334 37.9845,6.2071 37.7997,6.074 37.6267,5.9354 37.4659,5.7926 37.3925,5.7926 37.2317,5.9354 37.0587,6.074 36.8739,6.2071 36.678,6.3334 36.4715,6.4516 36.2552,6.5607 36.0299,6.6595 35.7966,6.7472 35.5562,6.8229 35.3098,6.8858 35.0586,6.9354 34.8037,6.9712 34.5463,6.9928 34.2876,7.0 34.029,6.9928 33.7716,6.9712 33.5167,6.9354 33.2654,6.8858 33.019,6.8229 32.7786,6.7472 32.5453,6.6595 32.32,6.5607 32.1037,6.4516 31.8972,6.3334 31.7013,6.2071 31.5166,6.074 31.3435,5.9354 31.1827,5.7926 31.0343,5.647 30.8985,5.5 30.7754,5.353 30.665,5.2074 30.567,5.0646 30.4812,4.926 30.407,4.7929 30.3441,4.6666 30.2918,4.5484 30.2492,4.4393 30.2157,4.3405 30.1902,4.2528 30.1717,4.1771 30.1592,4.1142 30.1516,4.0646 30.1477,4.0288 30.1508,3.902 30.1652,3.8049 30.1891,3.7097 30.2221,3.6173 30.2641,3.5286 30.3145,3.4444 30.373,3.3656 30.4389,3.2929 30.5116,3.227 30.5904,3.1685 30.6746,3.1181 30.7633,3.0761 30.8557,3.0431 30.9509,3.0192 31.048,3.0048 31.146,3.0 31.244,3.0048 31.3411,3.0192 31.4363,3.0431 31.5287,3.0761 31.6174,3.1181 31.7016,3.1685 31.7804,3.227 31.8531,3.2929 31.919,3.3656 31.9775,3.4444 32.0279,3.5286 32.0699,3.6173 32.103,3.7097 32.1268,3.8049 32.1412,3.902 32.1461,4.0024 32.1469,4.0096 32.1489,4.0215 32.1528,4.0381 32.1593,4.059 32.1688,4.0843 32.182,4.1135 32.1994,4.1464 32.2214,4.1828 32.2485,4.2222 32.281,4.2643 32.3193,4.3087 32.3637,4.3549 32.4144,4.4025 32.4715,4.451 32.5351,4.5 32.6053,4.549 32.6821,4.5975 32.7653,4.6451 32.8547,4.6913 32.9502,4.7357 33.0516,4.7778 33.1583,4.8172 33.2702,4.8536 33.3867,4.8865 33.5073,4.9157 33.6316,4.941 33.759,4.9619 33.889,4.9785 34.0208,4.9904 34.1539,4.9976 34.2876,5.0 34.4214,4.9976 34.5545,4.9904 34.6863,4.9785 34.8162,4.9619 34.9436,4.941 35.0679,4.9157 35.1885,4.8865 35.305,4.8536 35.4169,4.8172 35.5237,4.7778 35.625,4.7357 35.7205,4.6913 35.81,4.6451 35.8931,4.5975 35.9699,4.549 36.0401,4.5 36.1037,4.451 36.1608,4.4025 36.2115,4.3549 36.2559,4.3087 36.2942,4.2643 36.3268,4.2222 36.3538,4.1828 36.3758,4.1464 36.3932,4.1135 36.4064,4.0843 36.4159,4.059 36.4224,4.0381 36.4263,4.0215 36.4283,4.0096 36.4291,4.0024" stroke="black" stroke-width="0.1" /><polygon fill="none" points="56.4292,4.0 56.434,3.902 56.4484,3.8049 56.4723,3.7097 56.5053,3.6173 56.5473,3.5286 56.5977,3.4444 56.6562,3.3656 56.7221,3.2929 56.7948,3.227 56.8736,3.1685 56.9578,3.1181 57.0465,3.0761 57.1389,3.0431 57.2341,3.0192 57.3312,3.0048 57.4292,3.0 57.5272,3.0048 57.6243,3.0192 57.7195,3.0431 57.8119,3.0761 57.9006,3.1181 57.9848,3.1685 58.0636,3.227 58.1363,3.2929 58.2022,3.3656 58.2607,3.4444 58.3111,3.5286 58.3531,3.6173 58.3861,3.7097 58.41,3.8049 58.4244,3.902 58.4293,4.0024 58.4301,4.0096 58.4321,4.0215 58.436,4.0381 58.4425,4.059 58.452,4.0843 58.4652,4.1135 58.4826,4.1464 58.5046,4.1828 58.5316,4.2222 58.5642,4.2643 58.6025,4.3087 58.6469,4.3549 58.6976,4.4025 58.7547,4.451 58.8183,4.5 58.8885,4.549 58.9653,4.5975 59.0484,4.6451 59.1379,4.6913 59.2334,4.7357 59.3347,4.7778 59.4415,4.8172 59.5534,4.8536 59.6699,4.8865 59.7905,4.9157 59.9148,4.941 60.0422,4.9619 60.1721,4.9785 60.304,4.9904 60.4371,4.9976 60.5708,5.0 60.7045,4.9976 60.8376,4.9904 60.9695,4.9785 61.0994,4.9619 61.2268,4.941 61.3511,4.9157 61.4717,4.8865 61.5882,4.8536 61.7001,4.8172 61.8068,4.7778 61.9082,4.7357 62.0037,4.6913 62.0932,4.6451 62.1763,4.5975 62.2531,4.549 62.3233,4.5 62.3869,4.451 62.444,4.4025 62.4947,4.3549 62.5391,4.3087 62.5774,4.2643 62.6099,4.2222 62.637,4.1828 62.659,4.1464 62.6764,4.1135 62.6896,4.0843 62.6991,4.059 62.7056,4.0381 62.7095,4.0215 62.7115,4.0096 62.7123,4.0024 62.7172,3.902 62.7316,3.8049 62.7554,3.7097 62.7885,3.6173 62.8305,3.5286 62.8809,3.4444 62.9394,3.3656 63.0053,3.2929 63.078,3.227 63.1568,3.1685 63.241,3.1181 63.3297,3.0761 63.4221,3.0431 63.5173,3.0192 63.6144,3.0048 63.7124,3.0 63.8104,3.0048 63.9075,3.0192 64.0027,3.0431 64.0951,3.0761 64.1838,3.1181 64.268,3.1685 64.3468,3.227 64.4195,3.2929 64.4854,3.3656 64.5439,3.4444 64.5943,3.5286 64.6363,3.6173 64.6693,3.7097 64.6932,3.8049 64.7076,3.902 64.7122,4.0072 64.7107,4.0288 64.7068,4.0646 64.6992,4.1142 64.6867,4.1771 64.6683,4.2528 64.6427,4.3405 64.6092,4.4393 64.5666,4.5484 64.5143,4.6666 64.4514,4.7929 64.3773,4.926 64.2914,5.0646 64.1934,5.2074 64.083,5.353 63.9599,5.5 63.8241,5.647 63.6757,5.7926 63.5149,5.9354 63.3419,6.074 63.1571,6.2071 62.9612,6.3334 62.7547,6.4516 62.5384,6.5607 62.3131,6.6595 62.0798,6.7472 61.8394,6.8229 61.593,6.8858 61.3418,6.9354 61.0868,6.9712 60.8294,6.9928 60.5708,7.0 60.3122,6.9928 60.0548,6.9712 59.7998,6.9354 59.5486,6.8858 59.3022,6.8229 59.0618,6.7472 58.8285,6.6595 58.6032,6.5607 58.3869,6.4516 58.1804,6.3334 57.9845,6.2071 57.7997,6.074 57.6267,5.9354 57.4659,5.7926 57.3925,5.7926 57.2317,5.9354 57.0587,6.074 56.8739,6.2071 56.678,6.3334 56.4715,6.4516 56.2552,6.5607 56.0299,6.6595 55.7966,6.7472 55.5562,6.8229 55.3098,6.8858 55.0586,6.9354 54.8037,6.9712 54.5463,6.9928 54.2876,7.0 54.029,6.9928 53.7716,6.9712 53.5167,6.9354 53.2654,6.8858 53.019,6.8229 52.7786,6.7472 52.5453,6.6595 52.32,6.5607 52.1037,6.4516 51.8972,6.3334 51.7013,6.2071 51.5166,6.074 51.3435,5.9354 51.1827,5.7926 51.0343,5.647 50.8985,5.5 50.7754,5.353 50.665,5.2074 50.567,5.0646 50.4812,4.926 50.407,4.7929 50.3441,4.6666 50.2918,4.5484 50.2492,4.4393 50.2157,4.3405 50.1902,4.2528 50.1717,4.1771 50.1592,4.1142 50.1516,4.0646 50.1477,4.0288 50.1508,3.902 50.1652,3.8049 50.1891,3.7097 50.2221,3.6173 50.2641,3.5286 50.3145,3.4444 50.373,3.3656 50.4389,3.2929 50.5116,3.227 50.5904,3.1685 50.6746,3.1181 50.7633,3.0761 50.8557,3.0431 50.9509,3.0192 51.048,3.0048 51.146,3.0 51.244,3.0048 51.3411,3.0192 51.4363,3.0431 51.5287,3.0761 51.6174,3.1181 51.7016,3.1685 51.7804,3.227 51.8531,3.2929 51.919,3.3656 51.9775,3.4444 52.0279,3.5286 52.0699,3.6173 52.103,3.7097 52.1268,3.8049 52.1412,3.902 52.1461,4.0024 52.1469,4.0096 52.1489,4.0215 52.1528,4.0381 52.1593,4.059 52.1688,4.0843 52.182,4.1135 52.1994,4.1464 52.2214,4.1828 52.2485,4.2222 52.281,4.2643 52.3193,4.3087 52.3637,4.3549 52.4144,4.4025 52.4715,4.451 52.5351,4.5 52.6053,4.549 52.6821,4.5975 52.7653,4.6451 52.8547,4.6913 52.9502,4.7357 53.0516,4.7778 53.1583,4.8172 53.2702,4.8536 53.3867,4.8865 53.5073,4.9157 53.6316,4.941 53.759,4.9619 53.889,4.9785 54.0208,4.9904 54.1539,4.9976 54.2876,5.0 54.4214,4.9976 54.5545,4.9904 54.6863,4.9785 54.8162,4.9619 54.9436,4.941 55.0679,4.9157 55.1885,4.8865 55.305,4.8536 55.4169,4.8172 55.5237,4.7778 55.625,4.7357 55.7205,4.6913 55.81,4.6451 55.8931,4.5975 55.9699,4.549 56.0401,4.5 56.1037,4.451 56.1608,4.4025 56.2115,4.3549 56.2559,4.3087 56.2942,4.2643 56.3268,4.2222 56.3538,4.1828 56.3758,4.1464 56.3932,4.1135 56.4064,4.0843 56.4159,4.059 56.4224,4.0381 56.4263,4.0215 56.4283,4.0096 56.4291,4.0024" stroke="black" stroke-width="0.1" /><polygon fill="none" points="36.4292,24.0 36.434,23.902 36.4484,23.8049 36.4723,23.7097 36.5053,23.6173 36.5473,23.5286 36.5977,23.4444 36.6562,23.3656 36.7221,23.2929 36.7948,23.227 36.8736,23.1685 36.9578,23.1181 37.0465,23.0761 37.1389,23.0431 37.2341,23.0192 37.3312,23.0048 37.4292,23.0 37.5272,23.0048 37.6243,23.0192 37.7195,23.0431 37.8119,23.0761 37.9006,23.1181 37.9848,23.1685 38.0636,23.227 38.1363,23.2929 38.2022,23.3656 38.2607,23.4444 38.3111,23.5286 38.3531,23.6173 38.3861,23.7097 38.41,23.8049 38.4244,23.902 38.4293,24.0024 38.4301,24.0096 38.4321,24.0215 38.436,24.0381 38.4425,24.059 38.452,24.0843 38.4652,24.1135 38.4826,24.1464 38.5046,24.1828 38.5316,24.2222 38.5642,24.2643 38.6025,24.3087 38.6469,24.3549 38.6976,24.4025 38.7547,24.451 38.8183,24.5 38.8885,24.549 38.9653,24.5975 39.0484,24.6451 39.1379,24.6913 39.2334,24.7357 39.3347,24.7778 39.4415,24.8172 39.5534,24.8536 39.6699,24.8865 39.7905,24.9157 39.9148,24.941 40.0422,24.9619 40.1721,24.9785 40.304,24.9904 40.4371,24.9976 40.5708,25.0 40.7045,24.9976 40.8376,24.9904 40.9695,24.9785 41.0994,24.9619 41.2268,24.941 41.3511,24.9157 41.4717,24.8865 41.5882,24.8536 41.7001,24.8172 41.8068,24.7778 41.9082,24.7357 42.0037,24.6913 42.0932,24.6451 42.1763,24.5975 42.2531,24.549 42.3233,24.5 42.3869,24.451 42.444,24.4025 42.4947,24.3549 42.5391,24.3087 42.5774,24.2643 42.6099,24.2222 42.637,24.1828 42.659,24.1464 42.6764,24.1135 42.6896,24.0843 42.6991,24.059 42.7056,24.0381 42.7095,24.0215 42.7115,24.0096 42.7123,24.0024 42.7172,23.902 42.7316,23.8049 42.7554,23.7097 42.7885,23.6173 42.8305,23.5286 42.8809,23.4444 42.9394,23.3656 43.0053,23.2929 43.078,23.227 43.1568,23.1685 43.241,23.1181 43.3297,23.0761 43.4221,23.0431 43.5173,23.0192 43.6144,23.0048 43.7124,23.0 43.8104,23.0048 43.9075,23.0192 44.0027,23.0431 44.0951,23.0761 44.1838,23.1181 44.268,23.1685 44.3468,23.227 44.4195,23.2929 44.4854,23.3656 44.5439,23.4444 44.5943,23.5286 44.6363,23.6173 44.6693,23.7097 44.6932,23.8049 44.7076,23.902 44.7122,24.0072 44.7107,24.0288 44.7068,24.0646 44.6992,24.1142 44.6867,24.1771 44.6683,24.2528 44.6427,24.3405 44.6092,24.4393 44.5666,24.5484 44.5143,24.6666 44.4514,24.7929 44.3773,24.926 44.2914,25.0646 44.1934,25.2074 44.083,25.353 43.9599,25.5 43.8241,25.647 43.6757,25.7926 43.5149,25.9354 43.3419,26.074 43.1571,26.2071 42.9612,26.3334 42.7547,26.4516 42.5384,26.5607 42.3131,26.6595 42.0798,26.7472 41.8394,26.8229 41.593,26.8858 41.3418,26.9354 41.0868,26.9712 40.8294,26.9928 40.5708,27.0 40.3122,26.9928 40.0548,26.9712 39.7998,26.9354 39.5486,26.8858 39.3022,26.8229 39.0618,26.7472 38.8285,26.6595 38.6032,26.5607 38.3869,26.4516 38.1804,26.3334 37.9845,26.2071 37.7997,26.074 37.6267,25.9354 37.4659,25.7926 37.3925,25.7926 37.2317,25.9354 37.0587,26.074 36.8739,26.2071 36.678,26.3334 36.4715,26.4516 36.2552,26.5607 36.0299,26.6595 35.7966,26.7472 35.5562,26.8229 35.3098,26.8858 35.0586,26.9354 34.8037,26.9712 34.5463,26.9928 34.2876,27.0 34.029,26.9928 33.7716,26.9712 33.5167,26.9354 33.2654,26.8858 33.019,26.8229 32.7786,26.7472 32.5453,26.6595 32.32,26.5607 32.1037,26.4516 31.8972,26.3334 31.7013,26.2071 31.5166,26.074 31.3435,25.9354 31.1827,25.7926 31.0343,25.647 30.8985,25.5 30.7754,25.353 30.665,25.2074 30.567,25.0646 30.4812,24.926 30.407,24.7929 30.3441,24.6666 30.2918,24.5484 30.2492,24.4393 30.2157,24.3405 30.1902,24.2528 30.1717,24.1771 30.1592,24.1142 30.1516,24.0646 30.1477,24.0288 30.1508,23.902 30.1652,23.8049 30.1891,23.7097 30.2221,23.6173 30.2641,23.5286 30.3145,23.4444 30.373,23.3656 30.4389,23.2929 30.5116,23.227 30.5904,23.1685 30.6746,23.1181 30.7633,23.0761 30.8557,23.0431 30.9509,23.0192 31.048,23.0048 31.146,23.0 31.244,23.0048 31.3411,23.0192 31.4363,23.0431 31.5287,23.0761 31.6174,23.1181 31.7016,23.1685 31.7804,23.227 31.8531,23.2929 31.919,23.3656 31.9775,23.4444 32.0279,23.5286 32.0699,23.6173 32.103,23.7097 32.1268,23.8049 32.1412,23.902 32.1461,24.0024 32.1469,24.0096 32.1489,24.0215 32.1528,24.0381 32.1593,24.059 32.1688,24.0843 32.182,24.1135 32.1994,24.1464 32.2214,24.1828 32.2485,24.2222 32.281,24.2643 32.3193,24.3087 32.3637,24.3549 32.4144,24.4025 32.4715,24.451 32.5351,24.5 32.6053,24.549 32.6821,24.5975 32.7653,24.6451 32.8547,24.6913 32.9502,24.7357 33.0516,24.7778 33.1583,24.8172 33.2702,24.8536 33.3867,24.8865 33.5073,24.9157 33.6316,24.941 33.759,24.9619 33.889,24.9785 34.0208,24.9904 34.1539,24.9976 34.2876,25.0 34.4214,24.9976 34.5545,24.9904 34.6863,24.9785 34.8162,24.9619 34.9436,24.941 35.0679,24.9157 35.1885,24.8865 35.305,24.8536 35.4169,24.8172 35.5237,24.7778 35.625,24.7357 35.7205,24.6913 35.81,24.6451 35.8931,24.5975 35.9699,24.549 36.0401,24.5 36.1037,24.451 36.1608,24.4025 36.2115,24.3549 36.2559,24.3087 36.2942,24.2643 36.3268,24.2222 36.3538,24.1828 36.3758,24.1464 36.3932,24.1135 36.4064,24.0843 36.4159,24.059 36.4224,24.0381 36.4263,24.0215 36.4283,24.0096 36.4291,24.0024" stroke="black" stroke-width="0.1" /><polygon fill="none" points="56.4292,24.0 56.434,23.902 56.4484,23.8049 56.4723,23.7097 56.5053,23.6173 56.5473,23.5286 56.5977,23.4444 56.6562,23.3656 56.7221,23.2929 56.7948,23.227 56.8736,23.1685 56.9578,23.1181 57.0465,23.0761 57.1389,23.0431 57.2341,23.0192 57.3312,23.0048 57.4292,23.0 57.5272,23.0048 57.6243,23.0192 57.7195,23.0431 57.8119,23.0761 57.9006,23.1181 57.9848,23.1685 58.0636,23.227 58.1363,23.2929 58.2022,23.3656 58.2607,23.4444 58.3111,23.5286 58.3531,23.6173 58.3861,23.7097 58.41,23.8049 58.4244,23.902 58.4293,24.0024 58.4301,24.0096 58.4321,24.0215 58.436,24.0381 58.4425,24.059 58.452,24.0843 58.4652,24.1135 58.4826,24.1464 58.5046,24.1828 58.5316,24.2222 58.5642,24.2643 58.6025,24.3087 58.6469,24.3549 58.6976,24.4025 58.7547,24.451 58.8183,24.5 58.8885,24.549 58.9653,24.5975 59.0484,24.6451 59.1379,24.6913 59.2334,24.7357 59.3347,24.7778 59.4415,24.8172 59.5534,24.8536 59.6699,24.8865 59.7905,24.9157 59.9148,24.941 60.0422,24.9619 60.1721,24.9785 60.304,24.9904 60.4371,24.9976 60.5708,25.0 60.7045,24.9976 60.8376,24.9904 60.9695,24.9785 61.0994,24.9619 61.2268,24.941 61.3511,24.9157 61.4717,24.8865 61.5882,24.8536 61.7001,24.8172 61.8068,24.7778 61.9082,24.7357 62.0037,24.6913 62.0932,24.6451 62.1763,24.5975 62.2531,24.549 62.3233,24.5 62.3869,24.451 62.444,24.4025 62.4947,24.3549 62.5391,24.3087 62.5774,24.2643 62.6099,24.2222 62.637,24.1828 62.659,24.1464 62.6764,24.1135 62.6896,24.0843 62.6991,24.059 62.7056,24.0381 62.7095,24.0215 62.7115,24.0096 62.7123,24.0024 62.7172,23.902 62.7316,23.8049 62.7554,23.7097 62.7885,23.6173 62.8305,23.5286 62.8809,23.4444 62.9394,23.3656 63.0053,23.2929 63.078,23.227 63.1568,23.1685 63.241,23.1181 63.3297,23.0761 63.4221,23.0431 63.5173,23.0192 63.6144,23.0048 63.7124,23.0 63.8104,23.0048 63.9075,23.0192 64.0027,23.0431 64.0951,23.0761 64.1838,23.1181 64.268,23.1685 64.3468,23.227 64.4195,23.2929 64.4854,23.3656 64.5439,23.4444 64.5943,23.5286 64.6363,23.6173 64.6693,23.7097 64.6932,23.8049 64.7076,23.902 64.7122,24.0072 64.7107,24.0288 64.7068,24.0646 64.6992,24.1142 64.6867,24.1771 64.6683,24.2528 64.6427,24.3405 64.6092,24.4393 64.5666,24.5484 64.5143,24.6666 64.4514,24.7929 64.3773,24.926 64.2914,25.0646 64.1934,25.2074 64.083,25.353 63.9599,25.5 63.8241,25.647 63.6757,25.7926 63.5149,25.9354 63.3419,26.074 63.1571,26.2071 62.9612,26.3334 62.7547,26.4516 62.5384,26.5607 62.3131,26.6595 62.0798,26.7472 61.8394,26.8229 61.593,26.8858 61.3418,26.9354 61.0868,26.9712 60.8294,26.9928 60.5708,27.0 60.3122,26.9928 60.0548,26.9712 59.7998,26.9354 59.5486,26.8858 59.3022,26.8229 59.0618,26.7472 58.8285,26.6595 58.6032,26.5607 58.3869,26.4516 58.1804,26.3334 57.9845,26.2071 57.7997,26.074 57.6267,25.9354 57.4659,25.7926 57.3925,25.7926 57.2317,25.9354 57.0587,26.074 56.8739,26.2071 56.678,26.3334 56.4715,26.4516 56.2552,26.5607 56.0299,26.6595 55.7966,26.7472 55.5562,26.8229 55.3098,26.8858 55.0586,26.9354 54.8037,26.9712 54.5463,26.9928 54.2876,27.0 54.029,26.9928 53.7716,26.9712 53.5167,26.9354 53.2654,26.8858 53.019,26.8229 52.7786,26.7472 52.5453,26.6595 52.32,26.5607 52.1037,26.4516 51.8972,26.3334 51.7013,26.2071 51.5166,26.074 51.3435,25.9354 51.1827,25.7926 51.0343,25.647 50.8985,25.5 50.7754,25.353 50.665,25.2074 50.567,25.0646 50.4812,24.926 50.407,24.7929 50.3441,24.6666 50.2918,24.5484 50.2492,24.4393 50.2157,24.3405 50.1902,24.2528 50.1717,24.1771 50.1592,24.1142 50.1516,24.0646 50.1477,24.0288 50.1508,23.902 50.1652,23.8049 50.1891,23.7097 50.2221,23.6173 50.2641,23.5286 50.3145,23.4444 50.373,23.3656 50.4389,23.2929 50.5116,23.227 50.5904,23.1685 50.6746,23.1181 50.7633,23.0761 50.8557,23.0431 50.9509,23.0192 51.048,23.0048 51.146,23.0 51.244,23.0048 51.3411,23.0192 51.4363,23.0431 51.5287,23.0761 51.6174,23.1181 51.7016,23.1685 51.7804,23.227 51.8531,23.2929 51.919,23.3656 51.9775,23.4444 52.0279,23.5286 52.0699,23.6173 52.103,23.7097 52.1268,23.8049 52.1412,23.902 52.1461,24.0024 52.1469,24.0096 52.1489,24.0215 52.1528,24.0381 52.1593,24.059 52.1688,24.0843 52.182,24.1135 52.1994,24.1464 52.2214,24.1828 52.2485,24.2222 52.281,24.2643 52.3193,24.3087 52.3637,24.3549 52.4144,24.4025 52.4715,24.451 52.5351,24.5 52.6053,24.549 52.6821,24.5975 52.7653,24.6451 52.8547,24.6913 52.9502,24.7357 53.0516,24.7778 53.1583,24.8172 53.2702,24.8536 53.3867,24.8865 53.5073,24.9157 53.6316,24.941 53.759,24.9619 53.889,24.9785 54.0208,24.9904 54.1539,24.9976 54.2876,25.0 54.4214,24.9976 54.5545,24.9904 54.6863,24.9785 54.8162,24.9619 54.9436,24.941 55.0679,24.9157 55.1885,24.8865 55.305,24.8536 55.4169,24.8172 55.5237,24.7778 55.625,24.7357 55.7205,24.6913 55.81,24.6451 55.8931,24.5975 55.9699,24.549 56.0401,24.5 56.1037,24.451 56.1608,24.4025 56.2115,24.3549 56.2559,24.3087 56.2942,24.2643 56.3268,24.2222 56.3538,24.1828 56.3758,24.1464 56.3932,24.1135 56.4064,24.0843 56.4159,24.059 56.4224,24.0381 56.4263,24.0215 56.4283,24.0096 56.4291,24.0024" stroke="black" stroke-width="0.1" /></svg>