<?xml version="1.0" encoding="utf-8" ?>
<svg baseProfile="tiny" height="30mm" version="1.2" viewBox="0 0 100 30" width="100mm" xmlns="http://www.w3.org/2000/svg" xmlns:ev="http://www.w3.org/2001/xml-events" xmlns:xlink="http://www.w3.org/1999/xlink"><defs /><rect fill="none" height="30" stroke="black" stroke-width="0.1" width="98" x="0" y="0" /><circle cx="6" cy="15.0" fill="none" r="5" stroke="black" stroke-width="0.1" /><circle cx="92" cy="15.0" fill="none" r="5" stroke="black" stroke-width="0.1" /><polygon fill="none" points="37.4292,4.0 37.433,3.9128 37.4444,3.8264 37.4633,3.7412 37.4895,3.658 37.5229,3.5774 37.5632,3.5 37.6101,3.4264 37.6632,3.3572 37.7221,3.2929 37.7864,3.234 37.8556,3.1808 37.9292,3.134 38.0066,3.0937 38.0872,3.0603 38.1704,3.0341 38.2556,3.0152 38.342,3.0038 38.4292,3.0 38.5164,3.0038 38.6029,3.0152 38.688,3.0341 38.7712,3.0603 38.8518,3.0937 38.9292,3.134 39.0028,3.1808 39.072,3.234 39.1363,3.2929 39.1952,3.3572 39.2484,3.4264 39.2952,3.5 39.3355,3.5774 39.3689,3.658 39.3951,3.7412 39.414,3.8264 39.4254,3.9128 39.4293,4.0019 39.4298,4.0076 39.4312,4.017 39.434,4.0302 39.4386,4.0468 39.4453,4.067 39.4546,4.0904 39.4669,4.117 39.4826,4.1464 39.5019,4.1786 39.5252,4.2132 39.5527,4.25 39.5847,4.2887 39.6215,4.329 39.6631,4.3706 39.7097,4.4132 39.7614,4.4564 39.8183,4.5 39.8804,4.5436 39.9476,4.5868 40.02,4.6294 40.0974,4.671 40.1796,4.7113 40.2666,4.75 40.358,4.7868 40.4537,4.8214 40.5534,4.8536 40.6567,4.883 40.7634,4.9096 40.873,4.933 40.9853,4.9532 41.0997,4.9698 41.2159,4.983 41.3334,4.9924 41.4519,4.9981 41.5708,5.0 41.6897,4.9981 41.8081,4.9924 41.9257,4.983 42.0419,4.9698 42.1563,4.9532 42.2686,4.933 42.3782,4.9096 42.4849,4.883 42.5882,4.8536 42.6879,4.8214 42.7836,4.7868 42.875,4.75 42.962,4.7113 43.0442,4.671 43.1216,4.6294 43.1939,4.5868 43.2612,4.5436 43.3233,4.5 43.3802,4.4564 43.4319,4.4132 43.4785,4.3706 43.5201,4.329 43.5569,4.2887 43.5889,4.25 43.6164,4.2132 43.6397,4.1786 43.659,4.1464 43.6747,4.117 43.687,4.0904 43.6963,4.067 43.703,4.0468 43.7076,4.0302 43.7104,4.017 43.7118,4.0076 43.7123,4.0019 43.7162,3.9128 43.7276,3.8264 43.7465,3.7412 43.7727,3.658 43.8061,3.5774 43.8464,3.5 43.8932,3.4264 43.9463,3.3572 44.0053,3.2929 44.0696,3.234 44.1388,3.1808 44.2124,3.134 44.2898,3.0937 44.3704,3.0603 44.4536,3.0341 44.5387,3.0152 44.6252,3.0038 44.7124,3.0 44.7995,3.0038 44.886,3.0152 44.9712,3.0341 45.0544,3.0603 45.135,3.0937 45.2124,3.134 45.286,3.1808 45.3552,3.234 45.4195,3.2929 45.4784,3.3572 45.5315,3.4264 45.5784,3.5 45.6187,3.5774 45.6521,3.658 45.6783,3.7412 45.6972,3.8264 45.7086,3.9128 45.7122,4.0057 45.7112,4.0228 45.7085,4.0511 45.7031,4.0905 45.6943,4.1405 45.6813,4.201 45.6632,4.2713 45.6394,4.3509 45.6092,4.4393 45.5718,4.5358 45.5268,4.6396 45.4735,4.75 45.4116,4.8661 45.3406,4.987 45.2601,5.1118 45.17,5.2395 45.0699,5.3693 44.9599,5.5 44.8398,5.6307 44.7098,5.7605 44.5698,5.8882 44.4202,6.013 44.2612,6.1339 44.093,6.25 43.9162,6.3604 43.7311,6.4642 43.5384,6.5607 43.3385,6.6491 43.1323,6.7287 42.9202,6.799 42.7032,6.8595 42.4819,6.9095 42.2571,6.9489 42.0298,6.9772 41.8007,6.9943 41.5708,7.0 41.3409,6.9943 41.1118,6.9772 40.8845,6.9489 40.6597,6.9095 40.4384,6.8595 40.2214,6.799 40.0093,6.7287 39.803,6.6491 39.6032,6.5607 39.4105,6.4642 39.2254,6.3604 39.0486,6.25 38.8804,6.1339 38.7214,6.013 38.5717,5.8882 38.4318,5.7605 38.4266,5.7605 38.2867,5.8882 38.137,6.013 37.978,6.1339 37.8098,6.25 37.633,6.3604 37.4479,6.4642 37.2552,6.5607 37.0554,6.6491 36.8491,6.7287 36.637,6.799 36.42,6.8595 36.1987,6.9095 35.9739,6.9489 35.7466,6.9772 35.5176,6.9943 35.2876,7.0 35.0577,6.9943 34.8286,6.9772 34.6013,6.9489 34.3765,6.9095 34.1552,6.8595 33.9382,6.799 33.7261,6.7287 33.5199,6.6491 33.32,6.5607 33.1273,6.4642 32.9422,6.3604 32.7654,6.25 32.5972,6.1339 32.4382,6.013 32.2886,5.8882 32.1486,5.7605 32.0186,5.6307 31.8985,5.5 31.7885,5.3693 31.6884,5.2395 31.5983,5.1118 31.5178,4.987 31.4468,4.8661 31.3849,4.75 31.3316,4.6396 31.2866,4.5358 31.2492,4.4393 31.219,4.3509 31.1952,4.2713 31.1771,4.201 31.1641,4.1405 31.1553,4.0905 31.1499,4.0511 31.1472,4.0228 31.1498,3.9128 31.1612,3.8264 31.1801,3.7412 31.2063,3.658 31.2397,3.5774 31.28,3.5 31.3269,3.4264 31.38,3.3572 31.4389,3.2929 31.5032,3.234 31.5724,3.1808 31.646,3.134 31.7234,3.0937 31.804,3.0603 31.8872,3.0341 31.9724,3.0152 32.0589,3.0038 32.146,3.0 32.2332,3.0038 32.3197,3.0152 32.4048,3.0341 32.488,3.0603 32.5686,3.0937 32.646,3.134 32.7196,3.1808 32.7888,3.234 32.8531,3.2929 32.9121,3.3572 32.9652,3.4264 33.012,3.5 33.0523,3.5774 33.0857,3.658 33.1119,3.7412 33.1308,3.8264 33.1422,3.9128 33.1461,4.0019 33.1466,4.0076 33.1481,4.017 33.1508,4.0302 33.1554,4.0468 33.1621,4.067 33.1714,4.0904 33.1837,4.117 33.1994,4.1464 33.2187,4.1786 33.242,4.2132 33.2695,4.25 33.3016,4.2887 33.3383,4.329 33.3799,4.3706 33.4265,4.4132 33.4782,4.4564 33.5351,4.5 33.5972,4.5436 33.6645,4.5868 33.7368,4.6294 33.8142,4.671 33.8964,4.7113 33.9834,4.75 34.0748,4.7868 34.1705,4.8214 34.2702,4.8536 34.3735,4.883 34.4802,4.9096 34.5898,4.933 34.7021,4.9532 34.8165,4.9698 34.9327,4.983 35.0503,4.9924 35.1687,4.9981 35.2876,5.0 35.4065,4.9981 35.525,4.9924 35.6425,4.983 35.7587,4.9698 35.8731,4.9532 35.9854,4.933 36.095,4.9096 36.2017,4.883 36.305,4.8536 36.4047,4.8214 36.5004,4.7868 36.5918,4.75 36.6788,4.7113 36.761,4.671 36.8384,4.6294 36.9108,4.5868 36.978,4.5436 37.0401,4.5 37.097,4.4564 37.1487,4.4132 37.1953,4.3706 37.2369,4.329 37.2737,4.2887 37.3057,4.25 37.3332,4.2132 37.3565,4.1786 37.3758,4.1464 37.3915,4.117 37.4038,4.0904 37.4131,4.067 37.4199,4.0468 37.4244,4.0302 37.4272,4.017 37.4286,4.0076 37.4291,4.0019" stroke="black" stroke-width="0.1" /><polygon fill="none" points="57.4292,4.0 57.433,3.9128 57.4444,3.8264 57.4633,3.7412 57.4895,3.658 57.5229,3.5774 57.5632,3.5 57.6101,3.4264 57.6632,3.3572 57.7221,3.2929 57.7864,3.234 57.8556,3.1808 57.9292,3.134 58.0066,3.0937 58.0872,3.0603 58.1704,3.0341 58.2556,3.0152 58.342,3.0038 58.4292,3.0 58.5164,3.0038 58.6029,3.0152 58.688,3.0341 58.7712,3.0603 58.8518,3.0937 58.9292,3.134 59.0028,3.1808 59.072,3.234 59.1363,3.2929 59.1952,3.3572 59.2484,3.4264 59.2952,3.5 59.3355,3.5774 59.3689,3.658 59.3951,3.7412 59.414,3.8264 59.4254,3.9128 59.4293,4.0019 59.4298,4.0076 59.4312,4.017 59.434,4.0302 59.4386,4.0468 59.4453,4.067 59.4546,4.0904 59.4669,4.117 59.4826,4.1464 59.5019,4.1786 59.5252,4.2132 59.5527,4.25 59.5847,4.2887 59.6215,4.329 59.6631,4.3706 59.7097,4.4132 59.7614,4.4564 59.8183,4.5 59.8804,4.5436 59.9476,4.5868 60.02,4.6294 60.0974,4.671 60.1796,4.7113 60.2666,4.75 60.358,4.7868 60.4537,4.8214 60.5534,4.8536 60.6567,4.883 60.7634,4.9096 60.873,4.933 60.9853,4.9532 61.0997,4.9698 61.2159,4.983 61.3334,4.9924 61.4519,4.9981 61.5708,5.0 61.6897,4.9981 61.8081,4.9924 61.9257,4.983 62.0419,4.9698 62.1563,4.9532 62.2686,4.933 62.3782,4.9096 62.4849,4.883 62.5882,4.8536 62.6879,4.8214 62.7836,4.7868 62.875,4.75 62.962,4.7113 63.0442,4.671 63.1216,4.6294 63.1939,4.5868 63.2612,4.5436 63.3233,4.5 63.3802,4.4564 63.4319,4.4132 63.4785,4.3706 63.5201,4.329 63.5569,4.2887 63.5889,4.25 63.6164,4.2132 63.6397,4.1786 63.659,4.1464 63.6747,4.117 63.687,4.0904 63.6963,4.067 63.703,4.0468 63.7076,4.0302 63.7104,4.017 63.7118,4.0076 63.7123,4.0019 63.7162,3.9128 63.7276,3.8264 63.7465,3.7412 63.7727,3.658 63.8061,3.5774 63.8464,3.5 63.8932,3.4264 63.9463,3.3572 64.0053,3.2929 64.0696,3.234 64.1388,3.1808 64.2124,3.134 64.2898,3.0937 64.3704,3.0603 64.4536,3.0341 64.5387,3.0152 64.6252,3.0038 64.7124,3.0 64.7995,3.0038 64.886,3.0152 64.9712,3.0341 65.0544,3.0603 65.135,3.0937 65.2124,3.134 65.286,3.1808 65.3552,3.234 65.4195,3.2929 65.4784,3.3572 65.5315,3.4264 65.5784,3.5 65.6187,3.5774 65.6521,3.658 65.6783,3.7412 65.6972,3.8264 65.7086,3.9128 65.7122,4.0057 65.7112,4.0228 65.7085,4.0511 65.7031,4.0905 65.6943,4.1405 65.6813,4.201 65.6632,4.2713 65.6394,4.3509 65.6092,4.4393 65.5718,4.5358 65.5268,4.6396 65.4735,4.75 65.4116,4.8661 65.3406,4.987 65.2601,5.1118 65.17,5.2395 65.0699,5.3693 64.9599,5.5 64.8398,5.6307 64.7098,5.7605 64.5698,5.8882 64.4202,6.013 64.2612,6.1339 64.093,6.25 63.9162,6.3604 63.7311,6.4642 63.5384,6.5607 63.3385,6.6491 63.1323,6.7287 62.9202,6.799 62.7032,6.8595 62.4819,6.9095 62.2571,6.9489 62.0298,6.9772 61.8007,6.9943 61.5708,7.0 61.3409,6.9943 61.1118,6.9772 60.8845,6.9489 60.6597,6.9095 60.4384,6.8595 60.2214,6.799 60.0093,6.7287 59.803,6.6491 59.6032,6.5607 59.4105,6.4642 59.2254,6.3604 59.0486,6.25 58.8804,6.1339 58.7214,6.013 58.5717,5.8882 58.4318,5.7605 58.4266,5.7605 58.2867,5.8882 58.137,6.013 57.978,6.1339 57.8098,6.25 57.633,6.3604 57.4479,6.4642 57.2552,6.5607 57.0554,6.6491 56.8491,6.7287 56.637,6.799 56.42,6.8595 56.1987,6.9095 55.9739,6.9489 55.7466,6.9772 55.5176,6.9943 55.2876,7.0 55.0577,6.9943 54.8286,6.9772 54.6013,6.9489 54.3765,6.9095 54.1552,6.8595 53.9382,6.799 53.7261,6.7287 53.5199,6.6491 53.32,6.5607 53.1273,6.4642 52.9422,6.3604 52.7654,6.25 52.5972,6.1339 52.4382,6.013 52.2886,5.8882 52.1486,5.7605 52.0186,5.6307 51.8985,5.5 51.7885,5.3693 51.6884,5.2395 51.5983,5.1118 51.5178,4.987 51.4468,4.8661 51.3849,4.75 51.3316,4.6396 51.2866,4.5358 51.2492,4.4393 51.219,4.3509 51.1952,4.2713 51.1771,4.201 51.1641,4.1405 51.1553,4.0905 51.1499,4.0511 51.1472,4.0228 51.1498,3.9128 51.1612,3.8264 51.1801,3.7412 51.2063,3.658 51.2397,3.5774 51.28,3.5 51.3269,3.4264 51.38,3.3572 51.4389,3.2929 51.5032,3.234 51.5724,3.1808 51.646,3.134 51.7234,3.0937 51.804,3.0603 51.8872,3.0341 51.9724,3.0152 52.0589,3.0038 52.146,3.0 52.2332,3.0038 52.3197,3.0152 52.4048,3.0341 52.488,3.0603 52.5686,3.0937 52.646,3.134 52.7196,3.1808 52.7888,3.234 52.8531,3.2929 52.9121,3.3572 52.9652,3.4264 53.012,3.5 53.0523,3.5774 53.0857,3.658 53.1119,3.7412 53.1308,3.8264 53.1422,3.9128 53.1461,4.0019 53.1466,4.0076 53.1481,4.017 53.1508,4.0302 53.1554,4.0468 53.1621,4.067 53.1714,4.0904 53.1837,4.117 53.1994,4.1464 53.2187,4.1786 53.242,4.2132 53.2695,4.25 53.3016,4.2887 53.3383,4.329 53.3799,4.3706 53.4265,4.4132 53.4782,4.4564 53.5351,4.5 53.5972,4.5436 53.6645,4.5868 53.7368,4.6294 53.8142,4.671 53.8964,4.7113 53.9834,4.75 54.0748,4.7868 54.1705,4.8214 54.2702,4.8536 54.3735,4.883 54.4802,4.9096 54.5898,4.933 54.7021,4.9532 54.8165,4.9698 54.9327,4.983 55.0503,4.9924 55.1687,4.9981 55.2876,5.0 55.4065,4.9981 55.525,4.9924 55.6425,4.983 55.7587,4.9698 55.8731,4.9532 55.9854,4.933 56.095,4.9096 56.2017,4.883 56.305,4.8536 56.4047,4.8214 56.5004,4.7868 56.5918,4.75 56.6788,4.7113 56.761,4.671 56.8384,4.6294 56.9108,4.5868 56.978,4.5436 57.0401,4.5 57.097,4.4564 57.1487,4.4132 57.1953,4.3706 57.2369,4.329 57.2737,4.2887 57.3057,4.25 57.3332,4.2132 57.3565,4.1786 57.3758,4.1464 57.3915,4.117 57.4038,4.0904 57.4131,4.067 57.4199,4.0468 57.4244,4.0302 57.4272,4.017 57.4286,4.0076 57.4291,4.0019" stroke="black" stroke-width="0.1" /><polygon fill="none" points="37.4292,24.0 37.433,23.9128 37.4444,23.8264 37.4633,23.7412 37.4895,23.658 37.5229,23.5774 37.5632,23.5 37.6101,23.4264 37.6632,23.3572 37.7221,23.2929 37.7864,23.234 37.8556,23.1808 37.9292,23.134 38.0066,23.0937 38.0872,23.0603 38.1704,23.0341 38.2556,23.0152 38.342,23.0038 38.4292,23.0 38.5164,23.0038 38.6029,23.0152 38.688,23.0341 38.7712,23.0603 38.8518,23.0937 38.9292,23.134 39.0028,23.1808 39.072,23.234 39.1363,23.2929 39.1952,23.3572 39.2484,23.4264 39.2952,23.5 39.3355,23.5774 39.3689,23.658 39.3951,23.7412 39.414,23.8264 39.4254,23.9128 39.4293,24.0019 39.4298,24.0076 39.4312,24.017 39.434,24.0302 39.4386,24.0468 39.4453,24.067 39.4546,24.0904 39.4669,24.117 39.4826,24.1464 39.5019,24.1786 39.5252,24.2132 39.5527,24.25 39.5847,24.2887 39.6215,24.329 39.6631,24.3706 39.7097,24.4132 39.7614,24.4564 39.8183,24.5 39.8804,24.5436 39.9476,24.5868 40.02,24.6294 40.0974,24.671 40.1796,24.7113 40.2666,24.75 40.358,24.7868 40.4537,24.8214 40.5534,24.8536 40.6567,24.883 40.7634,24.9096 40.873,24.933 40.9853,24.9532 41.0997,24.9698 41.2159,24.983 41.3334,24.9924 41.4519,24.9981 41.5708,25.0 41.6897,24.9981 41.8081,24.9924 41.9257,24.983 42.0419,24.9698 42.1563,24.9532 42.2686,24.933 42.3782,24.9096 42.4849,24.883 42.5882,24.8536 42.6879,24.8214 42.7836,24.7868 42.875,24.75 42.962,24.7113 43.0442,24.671 43.1216,24.6294 43.1939,24.5868 43.2612,24.5436 43.3233,24.5 43.3802,24.4564 43.4319,24.4132 43.4785,24.3706 43.5201,24.329 43.5569,24.2887 43.5889,24.25 43.6164,24.2132 43.6397,24.1786 43.659,24.1464 43.6747,24.117 43.687,24.0904 43.6963,24.067 43.703,24.0468 43.7076,24.0302 43.7104,24.017 43.7118,24.0076 43.7123,24.0019 43.7162,23.9128 43.7276,23.8264 43.7465,23.7412 43.7727,23.658 43.8061,23.5774 43.8464,23.5 43.8932,23.4264 43.9463,23.3572 44.0053,23.2929 44.0696,23.234 44.1388,23.1808 44.2124,23.134 44.2898,23.0937 44.3704,23.0603 44.4536,23.0341 44.5387,23.0152 44.6252,23.0038 44.7124,23.0 44.7995,23.0038 44.886,23.0152 44.9712,23.0341 45.0544,23.0603 45.135,23.0937 45.2124,23.134 45.286,23.1808 45.3552,23.234 45.4195,23.2929 45.4784,23.3572 45.5315,23.4264 45.5784,23.5 45.6187,23.5774 45.6521,23.658 45.6783,23.7412 45.6972,23.8264 45.7086,23.9128 45.7122,24.0057 45.7112,24.0228 45.7085,24.0511 45.7031,24.0905 45.6943,24.1405 45.6813,24.201 45.6632,24.2713 45.6394,24.3509 45.6092,24.4393 45.5718,24.5358 45.5268,24.6396 45.4735,24.75 45.4116,24.8661 45.3406,24.987 45.2601,25.1118 45.17,25.2395 45.0699,25.3693 44.9599,25.5 44.8398,25.6307 44.7098,25.7605 44.5698,25.8882 44.4202,26.013 44.2612,26.1339 44.093,26.25 43.9162,26.3604 43.7311,26.4642 43.5384,26.5607 43.3385,26.6491 43.1323,26.7287 42.9202,26.799 42.7032,26.8595 42.4819,26.9095 42.2571,26.9489 42.0298,26.9772 41.8007,26.9943 41.5708,27.0 41.3409,26.9943 41.1118,26.9772 40.8845,26.9489 40.6597,26.9095 40.4384,26.8595 40.2214,26.799 40.0093,26.7287 39.803,26.6491 39.6032,26.5607 39.4105,26.4642 39.2254,26.3604 39.0486,26.25 38.8804,26.1339 38.7214,26.013 38.5717,25.8882 38.4318,25.7605 38.4266,25.7605 38.2867,25.8882 38.137,26.013 37.978,26.1339 37.8098,26.25 37.633,26.3604 37.4479,26.4642 37.2552,26.5607 37.0554,26.6491 36.8491,26.7287 36.637,26.799 36.42,26.8595 36.1987,26.9095 35.9739,26.9489 35.7466,26.9772 35.5176,26.9943 35.2876,27.0 35.0577,26.9943 34.8286,26.9772 34.6013,26.9489 34.3765,26.9095 34.1552,26.8595 33.9382,26.799 33.7261,26.7287 33.5199,26.6491 33.32,26.5607 33.1273,26.4642 32.9422,26.3604 32.7654,26.25 32.5972,26.1339 32.4382,26.013 32.2886,25.8882 32.1486,25.7605 32.0186,25.6307 31.8985,25.5 31.7885,25.3693 31.6884,25.2395 31.5983,25.1118 31.5178,24.987 31.4468,24.8661 31.3849,24.75 31.3316,24.6396 31.2866,24.5358 31.2492,24.4393 31.219,24.3509 31.1952,24.2713 31.1771,24.201 31.1641,24.1405 31.1553,24.0905 31.1499,24.0511 31.1472,24.0228 31.1498,23.9128 31.1612,23.8264 31.1801,23.7412 31.2063,23.658 31.2397,23.5774 31.28,23.5 31.3269,23.4264 31.38,23.3572 31.4389,23.2929 31.5032,23.234 31.5724,23.1808 31.646,23.134 31.7234,23.0937 31.804,23.0603 31.8872,23.0341 31.9724,23.0152 32.0589,23.0038 32.146,23.0 32.2332,23.0038 32.3197,23.0152 32.4048,23.0341 32.488,23.0603 32.5686,23.0937 32.646,23.134 32.7196,23.1808 32.7888,23.234 32.8531,23.2929 32.9121,23.3572 32.9652,23.4264 33.012,23.5 33.0523,23.5774 33.0857,23.658 33.1119,23.7412 33.1308,23.8264 33.1422,23.9128 33.1461,24.0019 33.1466,24.0076 33.1481,24.017 33.1508,24.0302 33.1554,24.0468 33.1621,24.067 33.1714,24.0904 33.1837,24.117 33.1994,24.1464 33.2187,24.1786 33.242,24.2132 33.2695,24.25 33.3016,24.2887 33.3383,24.329 33.3799,24.3706 33.4265,24.4132 33.4782,24.4564 33.5351,24.5 33.5972,24.5436 33.6645,24.5868 33.7368,24.6294 33.8142,24.671 33.8964,24.7113 33.9834,24.75 34.0748,24.7868 34.1705,24.8214 34.2702,24.8536 34.3735,24.883 34.4802,24.9096 34.5898,24.933 34.7021,24.9532 34.8165,24.9698 34.9327,24.983 35.0503,24.9924 35.1687,24.9981 35.2876,25.0 35.4065,24.9981 35.525,24.9924 35.6425,24.983 35.7587,24.9698 35.8731,24.9532 35.9854,24.933 36.095,24.9096 36.2017,24.883 36.305,24.8536 36.4047,24.8214 36.5004,24.7868 36.5918,24.75 36.6788,24.7113 36.761,24.671 36.8384,24.6294 36.9108,24.5868 36.978,24.5436 37.0401,24.5 37.097,24.4564 37.1487,24.4132 37.1953,24.3706 37.2369,24.329 37.2737,24.2887 37.3057,24.25 37.3332,24.2132 37.3565,24.1786 37.3758,24.1464 37.3915,24.117 37.4038,24.0904 37.4131,24.067 37.4199,24.0468 37.4244,24.0302 37.4272,24.017 37.4286,24.0076 37.4291,24.0019" stroke="black" stroke-width="0.1" /><polygon fill="none" points="57.4292,24.0 57.433,23.9128 57.4444,23.8264 57.4633,23.7412 57.4895,23.658 57.5229,23.5774 57.5632,23.5 57.6101,23.4264 57.6632,23.3572 57.7221,23.2929 57.7864,23.234 57.8556,23.1808 57.9292,23.134 58.0066,23.0937 58.0872,23.0603 58.1704,23.0341 58.2556,23.0152 58.342,23.0038 58.4292,23.0 58.5164,23.0038 58.6029,23.0152 58.688,23.0341 58.7712,23.0603 58.8518,23.0937 58.9292,23.134 59.0028,23.1808 59.072,23.234 59.1363,23.2929 59.1952,23.3572 59.2484,23.4264 59.2952,23.5 59.3355,23.5774 59.3689,23.658 59.3951,23.7412 59.414,23.8264 59.4254,23.9128 59.4293,24.0019 59.4298,24.0076 59.4312,24.017 59.434,24.0302 59.4386,24.0468 59.4453,24.067 59.4546,24.0904 59.4669,24.117 59.4826,24.1464 59.5019,24.1786 59.5252,24.2132 59.5527,24.25 59.5847,24.2887 59.6215,24.329 59.6631,24.3706 59.7097,24.4132 59.7614,24.4564 59.8183,24.5 59.8804,24.5436 59.9476,24.5868 60.02,24.6294 60.0974,24.671 60.1796,24.7113 60.2666,24.75 60.358,24.7868 60.4537,24.8214 60.5534,24.8536 60.6567,24.883 60.7634,24.9096 60.873,24.933 60.9853,24.9532 61.0997,24.9698 61.2159,24.983 61.3334,24.9924 61.4519,24.9981 61.5708,25.0 61.6897,24.9981 61.8081,24.9924 61.9257,24.983 62.0419,24.9698 62.1563,24.9532 62.2686,24.933 62.3782,24.9096 62.4849,24.883 62.5882,24.8536 62.6879,24.8214 62.7836,24.7868 62.875,24.75 62.962,24.7113 63.0442,24.671 63.1216,24.6294 63.1939,24.5868 63.2612,24.5436 63.3233,24.5 63.3802,24.4564 63.4319,24.4132 63.4785,24.3706 63.5201,24.329 63.5569,24.2887 63.5889,24.25 63.6164,24.2132 63.6397,24.1786 63.659,24.1464 63.6747,24.117 63.687,24.0904 63.6963,24.067 63.703,24.0468 63.7076,24.0302 63.7104,24.017 63.7118,24.0076 63.7123,24.0019 63.7162,23.9128 63.7276,23.8264 63.7465,23.7412 63.7727,23.658 63.8061,23.5774 63.8464,23.5 63.8932,23.4264 63.9463,23.3572 64.0053,23.2929 64.0696,23.234 64.1388,23.1808 64.2124,23.134 64.2898,23.0937 64.3704,23.0603 64.4536,23.0341 64.5387,23.0152 64.6252,23.0038 64.7124,23.0 64.7995,23.0038 64.886,23.0152 64.9712,23.0341 65.0544,23.0603 65.135,23.0937 65.2124,23.134 65.286,23.1808 65.3552,23.234 65.4195,23.2929 65.4784,23.3572 65.5315,23.4264 65.5784,23.5 65.6187,23.5774 65.6521,23.658 65.6783,23.7412 65.6972,23.8264 65.7086,23.9128 65.7122,24.0057 65.7112,24.0228 65.7085,24.0511 65.7031,24.0905 65.6943,24.1405 65.6813,24.201 65.6632,24.2713 65.6394,24.3509 65.6092,24.4393 65.5718,24.5358 65.5268,24.6396 65.4735,24.75 65.4116,24.8661 65.3406,24.987 65.2601,25.1118 65.17,25.2395 65.0699,25.3693 64.9599,25.5 64.8398,25.6307 64.7098,25.7605 64.5698,25.8882 64.4202,26.013 64.2612,26.1339 64.093,26.25 63.9162,26.3604 63.7311,26.4642 63.5384,26.5607 63.3385,26.6491 63.1323,26.7287 62.9202,26.799 62.7032,26.8595 62.4819,26.9095 62.2571,26.9489 62.0298,26.9772 61.8007,26.9943 61.5708,27.0 61.3409,26.9943 61.1118,26.9772 60.8845,26.9489 60.6597,26.9095 60.4384,26.8595 60.2214,26.799 60.0093,26.7287 59.803,26.6491 59.6032,26.5607 59.4105,26.4642 59.2254,26.3604 59.0486,26.25 58.8804,26.1339 58.7214,26.013 58.5717,25.8882 58.4318,25.7605 58.4266,25.7605 58.2867,25.8882 58.137,26.013 57.978,26.1339 57.8098,26.25 57.633,26.3604 57.4479,26.4642 57.2552,26.5607 57.0554,26.6491 56.8491,26.7287 56.637,26.799 56.42,26.8595 56.1987,26.9095 55.9739,26.9489 55.7466,26.9772 55.5176,26.9943 55.2876,27.0 55.0577,26.9943 54.8286,26.9772 54.6013,26.9489 54.3765,26.9095 54.1552,26.8595 53.9382,26.799 53.7261,26.7287 53.5199,26.6491 53.32,26.5607 53.1273,26.4642 52.9422,26.3604 52.7654,26.25 52.5972,26.1339 52.4382,26.013 52.2886,25.8882 52.1486,25.7605 52.0186,25.6307 51.8985,25.5 51.7885,25.3693 51.6884,25.2395 51.5983,25.1118 51.5178,24.987 51.4468,24.8661 51.3849,24.75 51.3316,24.6396 51.2866,24.5358 51.2492,24.4393 51.219,24.3509 51.1952,24.2713 51.1771,24.201 51.1641,24.1405 51.1553,24.0905 51.1499,24.0511 51.1472,24.0228 51.1498,23.9128 51.1612,23.8264 51.1801,23.7412 51.2063,23.658 51.2397,23.5774 51.28,23.5 51.3269,23.4264 51.38,23.3572 51.4389,23.2929 51.5032,23.234 51.5724,23.1808 51.646,23.134 51.7234,23.0937 51.804,23.0603 51.8872,23.0341 51.9724,23.0152 52.0589,23.0038 52.146,23.0 52.2332,23.0038 52.3197,23.0152 52.4048,23.0341 52.488,23.0603 52.5686,23.0937 52.646,23.134 52.7196,23.1808 52.7888,23.234 52.8531,23.2929 52.9121,23.3572 52.9652,23.4264 53.012,23.5 53.0523,23.5774 53.0857,23.658 53.1119,23.7412 53.1308,23.8264 53.1422,23.9128 53.1461,24.0019 53.1466,24.0076 53.1481,24.017 53.1508,24.0302 53.1554,24.0468 53.1621,24.067 53.1714,24.0904 53.1837,24.117 53.1994,24.1464 53.2187,24.1786 53.242,24.2132 53.2695,24.25 53.3016,24.2887 53.3383,24.329 53.3799,24.3706 53.4265,24.4132 53.4782,24.4564 53.5351,24.5 53.5972,24.5436 53.6645,24.5868 53.7368,24.6294 53.8142,24.671 53.8964,24.7113 53.9834,24.75 54.0748,24.7868 54.1705,24.8214 54.2702,24.8536 54.3735,24.883 54.4802,24.9096 54.5898,24.933 54.7021,24.9532 54.8165,24.9698 54.9327,24.983 55.0503,24.9924 55.1687,24.9981 55.2876,25.0 55.4065,24.9981 55.525,24.9924 55.6425,24.983 55.7587,24.9698 55.8731,24.9532 55.9854,24.933 56.095,24.9096 56.2017,24.883 56.305,24.8536 56.4047,24.8214 56.5004,24.7868 56.5918,24.75 56.6788,24.7113 56.761,24.671 56.8384,24.6294 56.9108,24.5868 56.978,24.5436 57.0401,24.5 57.097,24.4564 57.1487,24.4132 57.1953,24.3706 57.2369,24.329 57.2737,24.2887 57.3057,24.25 57.3332,24.2132 57.3565,24.1786 57.3758,24.1464 57.3915,24.117 57.4038,24.0904 57.4131,24.067 57.4199,24.0468 57.4244,24.0302 57.4272,24.017 57.4286,24.0076 57.4291,24.0019" stroke="black" stroke-width="0.1" /></svg>