<?xml version="1.0" encoding="utf-8" ?>
<svg baseProfile="tiny" height="100%" version="1.2" width="100%" xmlns="http://www.w3.org/2000/svg" xmlns:ev="http://www.w3.org/2001/xml-events" xmlns:xlink="http://www.w3.org/1999/xlink"><defs /><polyline fill="none" points="200.0,200.0 200.995,200.0998 201.9601,200.3973 202.866,200.8866 203.6842,201.5577 204.3879,202.3971 204.952,203.3879 205.3539,204.5095 205.5737,205.7388 205.5945,207.0499 205.403,208.4147 204.9896,209.8033 204.3483,211.1845 203.4775,212.5263 202.3795,213.7963 201.0611,214.9624 199.5328,215.9932 197.8096,216.8583 195.9104,217.5293 193.8575,217.9797 191.6771,218.1859 189.3982,218.1274 187.053,217.7869 184.6757,217.1512 182.3026,216.2111 179.9714,214.9618 177.7209,213.403 175.5901,211.5393 173.6178,209.3797 171.8422,206.9382 170.3002,204.2336 169.0268,201.289 168.0546,198.132 167.4132,194.7944 167.1289,191.3116 167.224,187.7226 167.7167,184.0693 168.6203,180.3961 169.9432,176.7494 171.6886,173.1771 173.8543,169.7279 176.4322,166.4506 179.409,163.3938 182.7656,160.6049 186.4774,158.1295 190.5142,156.0111 194.841,154.2902 199.4177,153.0036 204.2,152.1841 209.1391,151.8598 214.1831,152.0538 219.2769,152.7835 224.3629,154.0604 229.3818,155.8898 234.2734,158.2707 238.9768,161.1953 243.4317,164.6491 247.5786,168.6109 251.3601,173.0531 254.7212,177.9413 257.6102,183.2351 259.9794,188.8881 261.7856,194.8485 262.9911,201.0593 263.5638,207.4591 263.4782,213.9828 262.7154,220.5617 261.2637,227.1249 259.119,233.5997 256.285,239.9123 252.7732,245.9891 248.6028,251.7568 243.8013,257.1441 238.4037,262.0819 232.4525,266.5044 225.9976,270.35 219.0957,273.5619 211.8098,276.089 204.2085,277.8864 196.3658,278.9164 188.36,279.1487 180.2729,278.5611 172.1893,277.1399 164.1957,274.8803 156.3798,271.7863 148.829,267.8714 141.6301,263.1582 134.8677,257.6783 128.6238,251.4727 122.9763,244.5909 117.9983,237.0907 113.7573,229.038 110.3144,220.5059 107.723,211.5743 106.0289,202.3289 105.2686,192.8606 105.47,183.2646 106.6506,173.6392 108.8182,164.085 111.9701,154.7039" stroke="blue" /></svg>